<svg width="120" height="120" viewBox="0 0 120 120" fill="none" xmlns="http://www.w3.org/2000/svg">
<path d="M25.9926 47.672C29.7139 49.82 35.9646 49.8233 39.6505 47.6841C41.1801 46.7951 42.0304 45.6842 42.1024 44.544C42.1784 43.3123 41.2755 42.0525 39.6302 41.0807C39.6212 41.0755 39.6152 41.0694 39.6063 41.0641C39.5637 41.0395 39.5119 41.0236 39.4686 40.9996C35.6208 38.8705 29.3944 39.0487 25.9285 41.0619C24.3365 41.9873 23.4609 43.1525 23.4631 44.341C23.4631 45.5482 24.3631 46.7311 25.9926 47.672ZM28.8936 42.917C29.8311 42.3709 31.2395 42.058 32.7585 42.058C34.2908 42.058 35.7236 42.3731 36.6876 42.9214C37.4482 43.367 37.8927 43.9043 37.8927 44.3841C37.8927 44.8572 37.4571 45.3835 36.6987 45.829C35.7125 46.3951 34.3019 46.7223 32.8381 46.7223C31.3589 46.7223 29.9284 46.3873 28.9157 45.8014C28.1462 45.357 27.704 44.8274 27.704 44.3465C27.704 43.8744 28.1374 43.3526 28.8936 42.917Z" fill="#3198DE"/>
<path d="M80.5776 16.156C84.2988 18.3052 90.5518 18.3096 94.2377 16.1693C95.4394 15.4696 96.7191 14.2693 96.7163 12.8748C96.7141 11.6686 95.8164 10.4868 94.1912 9.54821C90.4745 7.40263 84.2092 7.39931 80.5135 9.546C77.1839 11.4811 77.2565 14.2364 80.5776 16.156ZM83.4608 11.3989C84.4094 10.8616 85.8333 10.5498 87.3612 10.5498C88.8891 10.5498 90.3064 10.8605 91.2527 11.4022C92.0222 11.8555 92.471 12.3906 92.471 12.8648C92.471 14.1041 90.0875 15.1909 87.37 15.1909C85.8908 15.1909 84.5177 14.8692 83.5051 14.2844C82.7268 13.841 82.2823 13.317 82.2823 12.8427C82.2823 12.3596 82.7113 11.8334 83.4608 11.3989Z" fill="#3198DE"/>
<path d="M23.4496 48.6546C23.4496 48.6498 23.4496 48.6491 23.4496 48.6465C23.4496 48.6629 23.4495 48.7034 23.4495 48.7565C23.4495 48.7083 23.4495 48.6723 23.4496 48.6546C23.4496 48.6542 23.4496 48.6551 23.4496 48.6546Z" fill="#3198DE"/>
<path d="M23.4477 49.2842C23.4476 49.34 23.4475 49.3914 23.4475 49.4369C23.4475 49.4242 23.4475 49.4112 23.4475 49.3967C23.4476 49.3577 23.4477 49.3197 23.4477 49.2842Z" fill="#3198DE"/>
<path d="M23.449 48.9178C23.449 48.8811 23.449 48.8497 23.4491 48.8208C23.449 48.8511 23.449 48.8834 23.449 48.9178Z" fill="#3198DE"/>
<path d="M56.6021 47.4433C57.5388 48.0427 58.7005 47.8367 59.6559 47.2747C60.5552 46.7689 61.3983 45.907 62.0352 44.8204C62.7097 43.6962 63.0282 42.5159 63.0282 41.4667C63.0282 40.2864 62.5974 39.2935 61.7543 38.7875C60.9111 38.263 59.7871 38.338 58.7191 38.9563C57.8011 39.4809 56.9581 40.3614 56.3585 41.4106C54.9159 43.8461 55.0283 46.5064 56.6021 47.4433Z" fill="#3198DE"/>
<path d="M79.4455 18.1175C78.9342 17.8217 78.4747 17.5 78.0631 17.1587L78.2294 75.3525C78.2308 75.6174 78.1137 75.8482 77.9519 76.0476C78.1458 77.0964 78.9719 78.1078 80.4007 78.9323C84.1197 81.0803 90.3705 81.0859 94.0586 78.9444C95.6527 78.0169 96.5328 76.8505 96.5372 75.661L96.703 17.2065C96.3094 17.5337 95.865 17.8422 95.3741 18.1263C90.8997 20.7306 83.896 20.6872 79.4455 18.1175Z" fill="#3198DE"/>
<path d="M24.8605 49.6332C24.3364 49.3314 23.8655 49.003 23.4498 48.6548C23.4498 48.6545 23.4498 48.6551 23.4498 48.6548C23.4495 48.7662 23.4492 48.8635 23.449 48.9525C23.4491 48.9406 23.449 48.9297 23.449 48.918C23.4488 48.952 23.4488 48.9876 23.4487 49.0289C23.4484 49.0967 23.4483 49.1578 23.4481 49.212C23.448 49.2345 23.4481 49.2602 23.448 49.2844C23.4481 49.2668 23.448 49.2496 23.4481 49.2313C23.448 49.295 23.4477 49.3514 23.4476 49.3969C23.4476 49.4136 23.4474 49.4277 23.4474 49.445C23.4474 49.4423 23.4476 49.4397 23.4476 49.4371C23.4474 49.4777 23.4473 49.509 23.4473 49.5331C23.4386 52.5789 23.4038 64.8514 23.284 107.106C23.2795 108.316 24.1794 109.503 25.8134 110.447C29.5325 112.597 35.7876 112.602 39.4735 110.46C41.0677 109.533 41.9477 108.366 41.9521 107.176L42.1158 48.7222C38.0188 52.1287 29.9144 52.5484 24.8605 49.6332Z" fill="#3198DE"/>
<path d="M64.1868 61.1405C64.1852 60.552 64.2239 74.1998 64.2255 74.7999L68.1712 72.522L68.1336 58.8608L64.1868 61.1405Z" fill="#3198DE"/>
<path d="M51.8157 78.21L51.8267 81.9589L55.7647 79.6859L55.7536 75.937L51.8157 78.21Z" fill="#3198DE"/>
<path d="M40.7294 39.0973L40.7349 39.1013L40.7382 39.1029C43.3192 40.5933 44.402 42.6986 44.402 44.4051C44.402 44.0958 44.276 91.3486 44.2715 92.9992L75.6068 74.9092L75.7809 13.8545L35.1326 37.3242C36.9274 37.5541 39.142 38.1879 40.7294 39.0973ZM69.8715 74.1552C70.1097 74.0176 51.4985 84.763 51.2652 84.8978C50.5141 85.3303 49.5719 84.7923 49.5671 83.9205L49.5494 77.5614C49.5472 77.1556 49.7639 76.7809 50.1154 76.5774L55.7471 73.3267L55.7338 68.6319C55.7316 68.2262 55.9483 67.8514 56.2998 67.648L61.9316 64.3963L61.9204 60.4918C61.9182 60.0861 62.1349 59.7113 62.4865 59.5079L68.6952 55.9226C69.0445 55.7214 69.4757 55.7203 69.825 55.9215C70.1766 56.1238 70.3933 56.4964 70.3933 56.8999L70.4375 73.1713C70.4375 73.577 70.223 73.9518 69.8715 74.1552ZM47.3914 47.4838C47.4367 46.85 47.7762 46.2386 48.2518 45.8537L50.0857 44.2915C50.3121 43.4311 50.6064 42.548 50.9914 41.6198L50.3574 40.4197C50.0404 39.7632 50.0857 39.0386 50.4706 38.4046L51.7385 36.3669C51.9423 36.0726 52.1914 35.8236 52.463 35.6651C52.8932 35.4386 53.2329 35.3707 53.5725 35.4386L54.7952 35.5744C55.3612 34.9405 56.0178 34.3065 56.6743 33.7631L57.3084 31.499C57.4895 30.7517 57.8744 30.2084 58.3951 29.914L60.1612 29.0084C60.5914 28.7819 61.0895 28.7819 61.497 28.9858C61.882 29.1669 62.1763 29.5518 62.2669 30.0047L62.5385 31.1367C62.9008 31.0914 63.2404 31.1141 63.6026 31.1367L65.1876 29.3933C65.3007 29.2348 65.4819 29.099 65.6858 28.9631C66.2291 28.6234 66.8857 28.6688 67.3612 29.0536L68.4253 29.8235C68.8328 30.0725 69.2405 30.7517 68.9008 31.7933L67.9272 34.1706C68.1084 34.5103 68.2894 34.8952 68.4253 35.3254L69.2857 35.2122C69.2857 35.2122 69.2857 35.2122 69.2857 35.1895C70.3951 35.0537 71.1196 35.8236 71.0518 36.7971L70.9611 38.7669C70.9386 39.3556 70.6216 39.9895 70.1687 40.3744L68.2894 41.9593C68.0857 42.7744 67.8141 43.5896 67.3839 44.631L68.2443 46.2613C68.4253 46.6235 68.4028 47.0537 68.1989 47.3933L66.3423 50.3594C66.0933 50.7216 65.6631 50.9481 65.2329 50.8801L63.6026 50.6537C63.0366 51.2649 62.4027 51.9216 61.7008 52.4877L61.0668 54.7518C60.8178 55.7027 60.3197 56.1556 59.9574 56.3593L58.2366 57.2197C57.2857 57.6725 56.4026 57.197 56.131 56.3819L55.8366 55.114C55.4971 55.1367 55.1347 55.1367 54.8179 55.0914L53.1876 56.8575C53.0971 56.9933 52.9159 57.1292 52.7121 57.265C52.214 57.5367 51.6707 57.582 51.1725 57.3103L49.9499 56.4046C49.3612 55.9971 49.18 55.1367 49.5197 54.3668L50.4706 52.0348C50.2896 51.6951 50.131 51.3103 49.9952 50.9027L49.0895 51.0159C48.4555 51.1291 48.0027 50.8574 47.7989 50.6764C47.4594 50.382 47.3009 49.9518 47.3234 49.4536L47.3914 47.4838Z" fill="#3198DE"/>
<path d="M58.0001 69.2807C57.9984 68.6923 58.0244 77.9132 58.0256 78.3798L61.9646 76.1064C61.9662 76.7103 61.9397 67.2338 61.939 67.0073L58.0001 69.2807Z" fill="#3198DE"/>
</svg>
