<svg width="120" height="120" viewBox="0 0 120 120" fill="none" xmlns="http://www.w3.org/2000/svg">
<path d="M72.9049 43.8267L64.7708 48.5497L97.8086 68.9451C97.8803 68.9927 97.9517 69.0405 98.0234 69.0882L107.326 63.6972L72.9049 43.8267Z" fill="#3198DE"/>
<path d="M11.5046 80.8721L11.4808 94.4688L45.9023 114.339L45.9262 100.742L16.5379 83.7822L11.5046 80.8721ZM37.2908 99.9791C38.0542 99.5258 39.0084 99.5975 39.9864 100.146C41.6562 101.124 42.9681 103.39 42.9681 105.323C42.9681 106.42 42.5388 107.302 41.7754 107.732C41.4416 107.946 41.0598 108.018 40.6782 108.018C40.1534 108.018 39.6048 107.875 39.0562 107.565C37.3625 106.563 36.0981 104.344 36.0981 102.388C36.0981 101.291 36.5276 100.408 37.2908 99.9791ZM26.4611 93.7293C27.2245 93.3 28.2024 93.3477 29.1567 93.8963C30.8503 94.8744 32.1384 97.1404 32.1384 99.0726C32.1384 100.17 31.7091 101.053 30.9457 101.482C30.6117 101.697 30.2301 101.768 29.8484 101.768C29.3237 101.768 28.7751 101.625 28.2502 101.315C26.5565 100.337 25.2684 98.0708 25.2684 96.1386C25.2684 95.0413 25.6978 94.1587 26.4611 93.7293ZM18.3507 87.6465C20.0205 88.6246 21.3324 90.8907 21.3087 92.8228C21.3087 93.9202 20.8794 94.8028 20.116 95.2321C19.8059 95.4469 19.4241 95.5184 19.0187 95.5184C18.4939 95.5184 17.9691 95.3752 17.4205 95.0651C15.7507 94.0872 14.4387 91.821 14.4387 89.8888C14.4387 88.7915 14.8681 87.9089 15.6314 87.4796C16.3948 87.0502 17.3966 87.0979 18.3507 87.6465Z" fill="#3198DE"/>
<path d="M99.3831 71.0919C99.4545 71.3781 99.5023 71.6882 99.5023 71.9983V84.5456L108.471 79.3454L108.519 65.7725L99.3831 71.0919Z" fill="#3198DE"/>
<path d="M58.3063 91.7495L50.3391 56.9463L38.913 63.5778L29.2044 74.9561C27.8433 76.5265 25.5402 76.5547 24.1711 75.3378C23.4316 74.7176 23.0023 73.8589 22.9308 72.9047V72.8808L12.6973 78.8205L47.1189 98.691L58.3063 92.1788V91.7495Z" fill="#3198DE"/>
<path d="M57.7339 52.6289L56.8274 53.1775L64.8662 88.3862L91.0103 73.1672L57.7339 52.6289Z" fill="#3198DE"/>
<path d="M92.3461 75.1709L65.4149 90.8192C65.4625 91.0101 65.4625 91.1769 65.4625 91.3439V104.344L92.7516 88.4814C92.4893 88.0044 92.3461 87.4557 92.3461 86.8832V75.1709Z" fill="#3198DE"/>
<path d="M58.3063 94.9458L48.3116 100.742L48.2877 114.315L58.7119 108.256C58.4496 107.779 58.3063 107.231 58.3063 106.658V94.9458Z" fill="#3198DE"/>
<path d="M53.8933 8.78504L48.4784 5.66016L41.7754 9.52451L47.1903 12.6733L53.8933 8.78504Z" fill="#3198DE"/>
<path d="M45.7114 14.5815C45.4846 14.4497 39.6377 11.0491 40.0102 11.2658L36.3606 20.6643L42.0616 23.9562L45.7114 14.5815Z" fill="#3198DE"/>
<path d="M40.4157 31.2079L44.7572 33.7365L41.7278 26.5564L37.3864 24.0278L40.4157 31.2079Z" fill="#3198DE"/>
<path d="M53.3687 44.3515V44.3278C53.7741 43.9938 54.1557 43.5406 54.4658 43.0634C55.1212 42.1894 55.7063 40.6955 55.7063 39.3422C55.7063 38.6744 55.1814 38.1495 54.5136 38.1495C53.8456 38.1495 53.3209 38.6744 53.3209 39.3422C53.3209 40.3558 52.6831 41.6218 52.009 42.3478C51.4638 42.9385 50.6128 43.4571 50.3869 43.2304C50.0626 43.0142 50.2269 42.0391 50.3153 41.6561C50.5267 40.8109 51.2969 39.3888 52.3191 38.8412C52.7007 38.6266 52.9392 38.2211 52.9392 37.7916V31.8914L55.3246 30.5162L59.5468 15.4404L55.9209 10.3833L48.1446 14.8679V14.8918L43.9463 25.6739V25.6977C44.0747 26.0014 48.0642 35.4332 47.8106 34.8337L50.5537 33.2605V37.1477C48.1244 39.0077 46.8864 43.1588 48.6693 44.8525C48.4714 45.0839 24.079 73.6104 25.5786 71.8554C25.1492 72.3563 25.2207 73.0958 25.7217 73.5252C26.1824 73.9398 26.9299 73.9186 27.3915 73.4059C27.0943 73.7537 31.3473 68.7725 50.4106 46.4507C66.9133 118.742 57.8942 79.2451 60.6917 91.4872C60.6917 91.9215 60.6917 107.29 60.6917 106.659C60.6917 107.303 61.2149 107.851 61.8844 107.851C62.5524 107.851 63.0771 107.326 63.0771 106.659C63.0771 106.183 63.0771 90.3078 63.0771 91.3441C63.0771 91.2726 63.0771 91.1771 63.0534 91.0817C62.8761 90.3075 52.276 43.986 52.9392 46.8802C62.7735 52.9658 54.5207 47.8701 94.7316 72.6665C94.7316 72.9516 94.7316 87.2798 94.7316 86.8834C94.7316 87.5638 95.3071 88.0761 95.9243 88.0761C96.5921 88.0761 97.117 87.5275 97.117 86.8834C97.117 85.0837 97.117 73.7366 97.117 71.9985C97.117 71.5691 96.9022 71.1874 96.5684 70.9728C56.7243 46.3869 53.1399 44.2108 53.3687 44.3515Z" fill="#3198DE"/>
</svg>
